<svg width="286" height="158" viewBox="0 0 286 158" fill="none" xmlns="http://www.w3.org/2000/svg">
<path d="M115.947 79V70.2727H117.004V78.0625H121.061V79H115.947ZM125.22 79.1364C124.629 79.1364 124.111 78.9957 123.665 78.7145C123.222 78.4332 122.875 78.0398 122.625 77.5341C122.378 77.0284 122.254 76.4375 122.254 75.7614C122.254 75.0795 122.378 74.4844 122.625 73.9759C122.875 73.4673 123.222 73.0724 123.665 72.7912C124.111 72.5099 124.629 72.3693 125.22 72.3693C125.811 72.3693 126.328 72.5099 126.771 72.7912C127.217 73.0724 127.564 73.4673 127.811 73.9759C128.061 74.4844 128.186 75.0795 128.186 75.7614C128.186 76.4375 128.061 77.0284 127.811 77.5341C127.564 78.0398 127.217 78.4332 126.771 78.7145C126.328 78.9957 125.811 79.1364 125.22 79.1364ZM125.22 78.233C125.669 78.233 126.038 78.1179 126.328 77.8878C126.618 77.6577 126.832 77.3551 126.972 76.9801C127.111 76.6051 127.18 76.1989 127.18 75.7614C127.18 75.3239 127.111 74.9162 126.972 74.5384C126.832 74.1605 126.618 73.8551 126.328 73.6222C126.038 73.3892 125.669 73.2727 125.22 73.2727C124.771 73.2727 124.402 73.3892 124.112 73.6222C123.822 73.8551 123.608 74.1605 123.469 74.5384C123.33 74.9162 123.26 75.3239 123.26 75.7614C123.26 76.1989 123.33 76.6051 123.469 76.9801C123.608 77.3551 123.822 77.6577 124.112 77.8878C124.402 78.1179 124.771 78.233 125.22 78.233ZM131.647 79.1534C131.233 79.1534 130.856 79.0753 130.518 78.919C130.18 78.7599 129.912 78.5312 129.713 78.233C129.514 77.9318 129.414 77.5682 129.414 77.142C129.414 76.767 129.488 76.4631 129.636 76.2301C129.784 75.9943 129.981 75.8097 130.228 75.6761C130.475 75.5426 130.748 75.4432 131.047 75.3778C131.348 75.3097 131.65 75.2557 131.954 75.2159C132.352 75.1648 132.674 75.1264 132.922 75.1009C133.172 75.0724 133.353 75.0256 133.467 74.9602C133.583 74.8949 133.642 74.7812 133.642 74.6193V74.5852C133.642 74.1648 133.527 73.8381 133.297 73.6051C133.069 73.3722 132.724 73.2557 132.261 73.2557C131.781 73.2557 131.404 73.3608 131.132 73.571C130.859 73.7812 130.667 74.0057 130.556 74.2443L129.602 73.9034C129.772 73.5057 130 73.196 130.284 72.9744C130.571 72.75 130.883 72.5937 131.221 72.5057C131.562 72.4148 131.897 72.3693 132.227 72.3693C132.437 72.3693 132.679 72.3949 132.951 72.446C133.227 72.4943 133.493 72.5952 133.748 72.7486C134.007 72.902 134.221 73.1335 134.392 73.4432C134.562 73.7528 134.647 74.1676 134.647 74.6875V79H133.642V78.1136H133.591C133.522 78.2557 133.409 78.4077 133.25 78.5696C133.091 78.7315 132.879 78.8693 132.615 78.983C132.35 79.0966 132.028 79.1534 131.647 79.1534ZM131.801 78.25C132.199 78.25 132.534 78.1719 132.806 78.0156C133.082 77.8594 133.289 77.6577 133.429 77.4105C133.571 77.1634 133.642 76.9034 133.642 76.6307V75.7102C133.599 75.7614 133.505 75.8082 133.36 75.8509C133.218 75.8906 133.054 75.9261 132.866 75.9574C132.681 75.9858 132.501 76.0114 132.325 76.0341C132.152 76.054 132.011 76.071 131.903 76.0852C131.642 76.1193 131.397 76.1747 131.17 76.2514C130.946 76.3253 130.764 76.4375 130.625 76.5881C130.488 76.7358 130.42 76.9375 130.42 77.1932C130.42 77.5426 130.549 77.8068 130.808 77.9858C131.069 78.1619 131.4 78.25 131.801 78.25ZM138.955 79.1364C138.409 79.1364 137.928 78.9986 137.51 78.723C137.092 78.4446 136.766 78.0526 136.53 77.5469C136.294 77.0384 136.176 76.4375 136.176 75.7443C136.176 75.0568 136.294 74.4602 136.53 73.9545C136.766 73.4489 137.094 73.0582 137.514 72.7827C137.935 72.5071 138.42 72.3693 138.972 72.3693C139.398 72.3693 139.734 72.4403 139.982 72.5824C140.232 72.7216 140.422 72.8807 140.553 73.0597C140.686 73.2358 140.79 73.3807 140.864 73.4943H140.949V70.2727H141.955V79H140.983V77.9943H140.864C140.79 78.1136 140.685 78.2642 140.548 78.446C140.412 78.625 140.217 78.7855 139.964 78.9276C139.712 79.0668 139.375 79.1364 138.955 79.1364ZM139.091 78.233C139.494 78.233 139.835 78.1278 140.114 77.9176C140.392 77.7045 140.604 77.4105 140.749 77.0355C140.893 76.6577 140.966 76.2216 140.966 75.7273C140.966 75.2386 140.895 74.8111 140.753 74.4446C140.611 74.0753 140.401 73.7884 140.122 73.5838C139.844 73.3764 139.5 73.2727 139.091 73.2727C138.665 73.2727 138.31 73.3821 138.026 73.6009C137.744 73.8168 137.533 74.1108 137.391 74.483C137.251 74.8523 137.182 75.267 137.182 75.7273C137.182 76.1932 137.253 76.6165 137.395 76.9972C137.54 77.375 137.753 77.6761 138.034 77.9006C138.318 78.1222 138.67 78.233 139.091 78.233ZM143.936 79V72.4545H144.942V79H143.936ZM144.447 71.3636C144.251 71.3636 144.082 71.2969 143.94 71.1634C143.801 71.0298 143.732 70.8693 143.732 70.6818C143.732 70.4943 143.801 70.3338 143.94 70.2003C144.082 70.0668 144.251 70 144.447 70C144.643 70 144.811 70.0668 144.95 70.2003C145.092 70.3338 145.163 70.4943 145.163 70.6818C145.163 70.8693 145.092 71.0298 144.95 71.1634C144.811 71.2969 144.643 71.3636 144.447 71.3636ZM147.789 75.0625V79H146.784V72.4545H147.755V73.4773H147.841C147.994 73.1449 148.227 72.8778 148.539 72.6761C148.852 72.4716 149.255 72.3693 149.75 72.3693C150.193 72.3693 150.581 72.4602 150.913 72.642C151.245 72.821 151.504 73.0938 151.689 73.4602C151.873 73.8239 151.966 74.2841 151.966 74.8409V79H150.96V74.9091C150.96 74.3949 150.826 73.9943 150.559 73.7074C150.292 73.4176 149.926 73.2727 149.46 73.2727C149.139 73.2727 148.852 73.3423 148.599 73.4815C148.349 73.6207 148.152 73.8239 148.007 74.0909C147.862 74.358 147.789 74.6818 147.789 75.0625ZM156.445 81.5909C155.96 81.5909 155.542 81.5284 155.192 81.4034C154.843 81.2812 154.552 81.1193 154.319 80.9176C154.089 80.7188 153.906 80.5057 153.769 80.2784L154.57 79.7159C154.661 79.8352 154.776 79.9716 154.915 80.125C155.055 80.2812 155.245 80.4162 155.487 80.5298C155.731 80.6463 156.05 80.7045 156.445 80.7045C156.974 80.7045 157.41 80.5767 157.754 80.321C158.097 80.0653 158.269 79.6648 158.269 79.1193V77.7898H158.184C158.11 77.9091 158.005 78.0568 157.869 78.233C157.735 78.4062 157.542 78.5611 157.289 78.6974C157.039 78.831 156.701 78.8977 156.275 78.8977C155.746 78.8977 155.272 78.7727 154.852 78.5227C154.434 78.2727 154.103 77.9091 153.859 77.4318C153.617 76.9545 153.496 76.375 153.496 75.6932C153.496 75.0227 153.614 74.4389 153.85 73.9418C154.086 73.4418 154.414 73.0554 154.835 72.7827C155.255 72.5071 155.741 72.3693 156.292 72.3693C156.718 72.3693 157.056 72.4403 157.306 72.5824C157.559 72.7216 157.752 72.8807 157.886 73.0597C158.022 73.2358 158.127 73.3807 158.201 73.4943H158.303V72.4545H159.275V79.1875C159.275 79.75 159.147 80.2074 158.891 80.5597C158.638 80.9148 158.298 81.1747 157.869 81.3395C157.442 81.5071 156.968 81.5909 156.445 81.5909ZM156.411 77.9943C156.815 77.9943 157.156 77.902 157.434 77.7173C157.712 77.5327 157.924 77.267 158.069 76.9205C158.214 76.5739 158.286 76.1591 158.286 75.6761C158.286 75.2045 158.215 74.7884 158.073 74.4276C157.931 74.0668 157.721 73.7841 157.442 73.5795C157.164 73.375 156.82 73.2727 156.411 73.2727C155.985 73.2727 155.63 73.3807 155.346 73.5966C155.065 73.8125 154.853 74.1023 154.711 74.4659C154.572 74.8295 154.502 75.233 154.502 75.6761C154.502 76.1307 154.573 76.5327 154.715 76.8821C154.86 77.2287 155.073 77.5014 155.354 77.7003C155.638 77.8963 155.991 77.9943 156.411 77.9943ZM161.849 79.0682C161.638 79.0682 161.458 78.9929 161.308 78.8423C161.157 78.6918 161.082 78.5114 161.082 78.3011C161.082 78.0909 161.157 77.9105 161.308 77.7599C161.458 77.6094 161.638 77.5341 161.849 77.5341C162.059 77.5341 162.239 77.6094 162.39 77.7599C162.54 77.9105 162.616 78.0909 162.616 78.3011C162.616 78.4403 162.58 78.5682 162.509 78.6847C162.441 78.8011 162.349 78.8949 162.232 78.9659C162.119 79.0341 161.991 79.0682 161.849 79.0682ZM165.153 79.0682C164.943 79.0682 164.763 78.9929 164.612 78.8423C164.462 78.6918 164.386 78.5114 164.386 78.3011C164.386 78.0909 164.462 77.9105 164.612 77.7599C164.763 77.6094 164.943 77.5341 165.153 77.5341C165.364 77.5341 165.544 77.6094 165.695 77.7599C165.845 77.9105 165.92 78.0909 165.92 78.3011C165.92 78.4403 165.885 78.5682 165.814 78.6847C165.746 78.8011 165.653 78.8949 165.537 78.9659C165.423 79.0341 165.295 79.0682 165.153 79.0682ZM168.458 79.0682C168.248 79.0682 168.067 78.9929 167.917 78.8423C167.766 78.6918 167.691 78.5114 167.691 78.3011C167.691 78.0909 167.766 77.9105 167.917 77.7599C168.067 77.6094 168.248 77.5341 168.458 77.5341C168.668 77.5341 168.849 77.6094 168.999 77.7599C169.15 77.9105 169.225 78.0909 169.225 78.3011C169.225 78.4403 169.19 78.5682 169.119 78.6847C169.05 78.8011 168.958 78.8949 168.842 78.9659C168.728 79.0341 168.6 79.0682 168.458 79.0682Z" fill="#EDEDED"/>
</svg>
